# File created by Blade
# Date/Time:  Thu Sep 25 18:48:06 2014
# Frame Rate: 120.000 fps
#------------------------------------------------------
:FULLY-SPECIFIED
:DEGREES
781
root -0.235524 32.814051 -5.494596 103.368911 5.983855 -1.382286
Spine 58.142072 2.995866 3.471674
Head -17.980223 -1.770278 17.534975
LeftShoulder -18.235773 18.142443 23.191503
LeftArm -81.873420 23.183023 -108.479348
LeftForeArm 12.570497 0.000000 24.207932
LeftHand -14.760433 0.000000 -69.475134
LeftHandThumb1 -26.253704 0.000000 33.147579
RightShoulder -25.201068 -31.919382 -34.154980
RightArm -52.540822 -18.081677 89.136893
RightForeArm -26.835859 0.000000 3.808141
RightHand 2.348241 -0.000000 71.919767
RightHandThumb1 -24.326973 -0.000000 -32.862282
LeftUpLeg -111.768651 2.665303 -10.782800
LeftLeg -2.873338 -0.000000 0.000000
LeftFoot 7.413213 1.202548 -11.847624
LeftToeBase 12.824998 -0.000000 -0.000000
RightUpLeg -110.507540 2.134370 15.003436
RightLeg 2.067342 -0.000000 -0.000000
RightFoot 3.418075 -3.045487 2.109660
RightToeBase 0.938424 -0.000000 -0.000000
782
root -0.234105 32.811466 -5.508560 103.331581 5.947941 -1.388923
Spine 58.159953 3.036073 3.455147
Head -18.067489 -1.749347 17.632459
LeftShoulder -18.252707 18.127762 23.242213
LeftArm -81.886749 23.204880 -108.483925
LeftForeArm 12.591028 -0.000000 24.204986
LeftHand -14.740238 -0.000000 -69.520295
LeftHandThumb1 -26.253704 0.000000 33.147579
RightShoulder -25.113449 -31.528759 -34.220229
RightArm -53.159877 -18.319305 89.547694
RightForeArm -26.351260 -0.000000 3.987897
RightHand 2.172623 0.000000 71.982239
RightHandThumb1 -24.326973 -0.000000 -32.862282
LeftUpLeg -111.748092 2.668232 -10.812036
LeftLeg -2.883253 -0.000000 0.000000
LeftFoot 7.430215 1.196423 -11.847566
LeftToeBase 12.869090 -0.000000 -0.000000
RightUpLeg -110.488847 2.126828 14.973521
RightLeg 2.041331 -0.000000 -0.000000
RightFoot 3.452098 -3.045098 2.100969
RightToeBase 0.931415 -0.000000 -0.000000
783
root -0.232014 32.808855 -5.522398 103.279299 5.905391 -1.397643
Spine 58.217461 3.078120 3.449700
Head -18.262138 -1.738912 17.684896
LeftShoulder -18.282245 18.070043 23.276245
LeftArm -81.917234 23.237350 -108.476725
LeftForeArm 12.606533 -0.000000 24.221055
LeftHand -14.718098 -0.000000 -69.533338
LeftHandThumb1 -26.253704 0.000000 33.147579
RightShoulder -25.122082 -31.305265 -34.183568
RightArm -53.542939 -18.548910 89.877199
RightForeArm -26.039729 0.000000 4.113427
RightHand 2.213994 0.000000 72.003275
RightHandThumb1 -24.326973 -0.000000 -32.862282
LeftUpLeg -111.714775 2.681276 -10.820201
LeftLeg -2.886169 -0.000000 0.000000
LeftFoot 7.428484 1.237363 -11.856041
LeftToeBase 12.868138 -0.000000 -0.000000
RightUpLeg -110.451617 2.116343 14.935159
RightLeg 2.003722 -0.000000 -0.000000
RightFoot 3.502937 -3.043384 2.081974
RightToeBase 0.930741 -0.000000 -0.000000
784
root -0.228978 32.806488 -5.538450 103.235847 5.860211 -1.391953
Spine 58.259401 3.071001 3.417779
Head -18.467373 -1.669609 17.704975
LeftShoulder -18.369138 18.034986 23.266340
LeftArm -81.958162 23.288898 -108.486238
LeftForeArm 12.576804 0.000000 24.248930
LeftHand -14.811102 -0.000000 -69.510550
LeftHandThumb1 -26.253704 0.000000 33.147579
RightShoulder -25.145540 -31.198863 -34.158176
RightArm -53.617274 -18.506141 89.788428
RightForeArm -26.153747 0.000000 4.186250
RightHand 2.206178 -0.000000 72.027967
RightHandThumb1 -24.326973 -0.000000 -32.862282
LeftUpLeg -111.691921 2.668257 -10.846498
LeftLeg -2.885080 -0.000000 0.000000
LeftFoot 7.446116 1.242356 -11.833680
LeftToeBase 12.887030 -0.000000 -0.000000
RightUpLeg -110.436627 2.092974 14.909498
RightLeg 1.981394 -0.000000 -0.000000
RightFoot 3.544399 -3.015883 2.098953
RightToeBase 0.892608 -0.000000 -0.000000
